<mxfile host="app.diagrams.net" modified="2022-01-11T17:35:06.175Z" agent="5.0 (Windows NT 10.0; Win64; x64) AppleWebKit/537.36 (KHTML, like Gecko) Chrome/97.0.4692.71 Safari/537.36" etag="fhzraIV4kMbcE6buE43E" version="16.2.3" type="github">
  <diagram id="rv_gW7nbhPOPanJ6aGcn" name="Page-1">
    <mxGraphModel dx="868" dy="454" grid="1" gridSize="10" guides="1" tooltips="1" connect="1" arrows="1" fold="1" page="1" pageScale="1" pageWidth="827" pageHeight="1169" math="0" shadow="0">
      <root>
        <mxCell id="0" />
        <mxCell id="1" parent="0" />
        <mxCell id="QakK2066xijLmqNKVFA3-11" style="edgeStyle=orthogonalEdgeStyle;rounded=0;orthogonalLoop=1;jettySize=auto;html=1;exitX=1;exitY=0.5;exitDx=0;exitDy=0;entryX=0;entryY=0.5;entryDx=0;entryDy=0;" parent="1" source="QakK2066xijLmqNKVFA3-1" target="QakK2066xijLmqNKVFA3-3" edge="1">
          <mxGeometry relative="1" as="geometry" />
        </mxCell>
        <mxCell id="QakK2066xijLmqNKVFA3-12" style="edgeStyle=orthogonalEdgeStyle;rounded=0;orthogonalLoop=1;jettySize=auto;html=1;exitX=1;exitY=0.5;exitDx=0;exitDy=0;entryX=0;entryY=0.5;entryDx=0;entryDy=0;" parent="1" source="QakK2066xijLmqNKVFA3-1" target="QakK2066xijLmqNKVFA3-2" edge="1">
          <mxGeometry relative="1" as="geometry" />
        </mxCell>
        <mxCell id="QakK2066xijLmqNKVFA3-13" style="edgeStyle=orthogonalEdgeStyle;rounded=0;orthogonalLoop=1;jettySize=auto;html=1;exitX=1;exitY=0.5;exitDx=0;exitDy=0;entryX=0;entryY=0.5;entryDx=0;entryDy=0;" parent="1" source="QakK2066xijLmqNKVFA3-1" target="QakK2066xijLmqNKVFA3-10" edge="1">
          <mxGeometry relative="1" as="geometry" />
        </mxCell>
        <mxCell id="QakK2066xijLmqNKVFA3-14" style="edgeStyle=orthogonalEdgeStyle;rounded=0;orthogonalLoop=1;jettySize=auto;html=1;exitX=1;exitY=0.5;exitDx=0;exitDy=0;entryX=0;entryY=0.5;entryDx=0;entryDy=0;" parent="1" source="QakK2066xijLmqNKVFA3-1" target="QakK2066xijLmqNKVFA3-4" edge="1">
          <mxGeometry relative="1" as="geometry" />
        </mxCell>
        <mxCell id="QakK2066xijLmqNKVFA3-1" value="F3 : Faire un point de situation à l&#39;arrivée sur chaque LIMA" style="rounded=0;whiteSpace=wrap;html=1;" parent="1" vertex="1">
          <mxGeometry x="40" y="320" width="120" height="60" as="geometry" />
        </mxCell>
        <mxCell id="QakK2066xijLmqNKVFA3-16" style="edgeStyle=orthogonalEdgeStyle;rounded=0;orthogonalLoop=1;jettySize=auto;html=1;exitX=1;exitY=0.5;exitDx=0;exitDy=0;entryX=0;entryY=0.5;entryDx=0;entryDy=0;" parent="1" source="QakK2066xijLmqNKVFA3-2" target="QakK2066xijLmqNKVFA3-15" edge="1">
          <mxGeometry relative="1" as="geometry" />
        </mxCell>
        <mxCell id="QakK2066xijLmqNKVFA3-2" value="Acquérir l&#39;arrivée sur une LIMA" style="rounded=0;whiteSpace=wrap;html=1;" parent="1" vertex="1">
          <mxGeometry x="240" y="160" width="120" height="60" as="geometry" />
        </mxCell>
        <mxCell id="QakK2066xijLmqNKVFA3-18" style="edgeStyle=orthogonalEdgeStyle;rounded=0;orthogonalLoop=1;jettySize=auto;html=1;exitX=1;exitY=0.5;exitDx=0;exitDy=0;entryX=0;entryY=0.5;entryDx=0;entryDy=0;" parent="1" source="QakK2066xijLmqNKVFA3-3" target="QakK2066xijLmqNKVFA3-17" edge="1">
          <mxGeometry relative="1" as="geometry" />
        </mxCell>
        <mxCell id="QakK2066xijLmqNKVFA3-3" value="Acquérir l&#39;ensemble des données de la phase" style="rounded=0;whiteSpace=wrap;html=1;" parent="1" vertex="1">
          <mxGeometry x="240" y="320" width="120" height="60" as="geometry" />
        </mxCell>
        <mxCell id="QakK2066xijLmqNKVFA3-8" style="edgeStyle=orthogonalEdgeStyle;rounded=0;orthogonalLoop=1;jettySize=auto;html=1;exitX=1;exitY=0.5;exitDx=0;exitDy=0;entryX=0;entryY=0.5;entryDx=0;entryDy=0;" parent="1" source="QakK2066xijLmqNKVFA3-4" target="QakK2066xijLmqNKVFA3-5" edge="1">
          <mxGeometry relative="1" as="geometry" />
        </mxCell>
        <mxCell id="QakK2066xijLmqNKVFA3-4" value="Envoyer au poste de commandement le point de situation" style="rounded=0;whiteSpace=wrap;html=1;" parent="1" vertex="1">
          <mxGeometry x="240" y="620" width="120" height="60" as="geometry" />
        </mxCell>
        <mxCell id="QakK2066xijLmqNKVFA3-9" style="edgeStyle=orthogonalEdgeStyle;rounded=0;orthogonalLoop=1;jettySize=auto;html=1;exitX=1;exitY=0.5;exitDx=0;exitDy=0;entryX=0;entryY=0.5;entryDx=0;entryDy=0;" parent="1" source="QakK2066xijLmqNKVFA3-5" target="QakK2066xijLmqNKVFA3-7" edge="1">
          <mxGeometry relative="1" as="geometry" />
        </mxCell>
        <mxCell id="QakK2066xijLmqNKVFA3-5" value="Communiquer l&#39;information" style="rounded=0;whiteSpace=wrap;html=1;" parent="1" vertex="1">
          <mxGeometry x="440" y="620" width="120" height="60" as="geometry" />
        </mxCell>
        <mxCell id="QakK2066xijLmqNKVFA3-7" value="Opérateur" style="ellipse;whiteSpace=wrap;html=1;" parent="1" vertex="1">
          <mxGeometry x="640" y="610" width="120" height="80" as="geometry" />
        </mxCell>
        <mxCell id="QakK2066xijLmqNKVFA3-10" value="F33 : Formaliser les données" style="rounded=0;whiteSpace=wrap;html=1;" parent="1" vertex="1">
          <mxGeometry x="240" y="470" width="120" height="60" as="geometry" />
        </mxCell>
        <mxCell id="QakK2066xijLmqNKVFA3-15" value="Données GPS et coordonnées" style="ellipse;whiteSpace=wrap;html=1;" parent="1" vertex="1">
          <mxGeometry x="520" y="150" width="120" height="80" as="geometry" />
        </mxCell>
        <mxCell id="QakK2066xijLmqNKVFA3-20" style="edgeStyle=orthogonalEdgeStyle;rounded=0;orthogonalLoop=1;jettySize=auto;html=1;exitX=1;exitY=0.5;exitDx=0;exitDy=0;entryX=0;entryY=0.5;entryDx=0;entryDy=0;" parent="1" source="QakK2066xijLmqNKVFA3-17" target="QakK2066xijLmqNKVFA3-19" edge="1">
          <mxGeometry relative="1" as="geometry" />
        </mxCell>
        <mxCell id="QakK2066xijLmqNKVFA3-17" value="Récupérer les données qui se sont passés dans cette phase" style="rounded=0;whiteSpace=wrap;html=1;" parent="1" vertex="1">
          <mxGeometry x="430" y="320" width="120" height="60" as="geometry" />
        </mxCell>
        <mxCell id="QakK2066xijLmqNKVFA3-19" value="Algo + stockage de l&#39;information (historique?)" style="ellipse;whiteSpace=wrap;html=1;" parent="1" vertex="1">
          <mxGeometry x="650" y="310" width="120" height="80" as="geometry" />
        </mxCell>
      </root>
    </mxGraphModel>
  </diagram>
</mxfile>
